<svg xmlns="http://www.w3.org/2000/svg" xml:space="preserve" version="1.1" style="shape-rendering:geometricPrecision; text-rendering:geometricPrecision; image-rendering:optimizeQuality; fill-rule:evenodd; clip-rule:evenodd"
viewBox="9250 5040 1750 450">
 <defs>
  <style type="text/css">
   <![CDATA[
    .fil0 {fill:#017443}
    .fil1 {fill:#FEFEFE;fill-rule:nonzero}
    .fil2 {fill:#332C2B;fill-rule:nonzero}
   ]]>
  </style>
 </defs>
 <g id="Layer_x0020_1">
  <rect class="fil0" x="9251.1" y="5285.07" width="1370.75" height="186.85" rx="24.59" ry="24.59"/>
  <path class="fil1" d="M9308.24 5398.37l0 37.83 -26.26 0 0 -113.34 39.93 0c7.98,0 14.84,0.96 20.56,2.85 5.73,1.89 10.44,4.5 14.14,7.82 3.7,3.31 6.42,7.22 8.18,11.75 1.77,4.51 2.65,9.4 2.65,14.64 0,5.64 -0.91,10.85 -2.72,15.56 -1.82,4.74 -4.59,8.78 -8.32,12.14 -3.72,3.37 -8.44,6.01 -14.16,7.9 -5.72,1.89 -12.51,2.85 -20.33,2.85l-13.67 0zm0 -19.89l13.67 0c6.84,0 11.76,-1.63 14.76,-4.89 3.01,-3.26 4.51,-7.82 4.51,-13.67 0,-2.59 -0.39,-4.95 -1.17,-7.07 -0.77,-2.13 -1.94,-3.97 -3.52,-5.49 -1.58,-1.53 -3.57,-2.7 -5.98,-3.53 -2.41,-0.82 -5.28,-1.24 -8.6,-1.24l-13.67 0 0 35.89z"/>
  <path id="1" class="fil1" d="M9413.28 5354.4c5.34,0 10.23,0.83 14.66,2.49 4.43,1.65 8.24,4.06 11.42,7.22 3.19,3.16 5.67,7.02 7.46,11.6 1.79,4.59 2.67,9.79 2.67,15.59 0,1.81 -0.08,3.29 -0.24,4.43 -0.15,1.14 -0.44,2.04 -0.85,2.72 -0.42,0.67 -0.96,1.14 -1.66,1.4 -0.7,0.25 -1.6,0.38 -2.69,0.38l-46.46 0c0.78,6.76 2.82,11.66 6.14,14.71 3.31,3.03 7.59,4.56 12.82,4.56 2.79,0 5.2,-0.34 7.22,-1.01 2.02,-0.67 3.83,-1.42 5.41,-2.28 1.58,-0.83 3.03,-1.58 4.35,-2.25 1.32,-0.67 2.7,-1.01 4.15,-1.01 1.91,0 3.36,0.72 4.35,2.15l6.99 8.8c-2.49,2.8 -5.15,5.1 -8.03,6.84 -2.87,1.76 -5.82,3.16 -8.85,4.14 -3.03,0.99 -6.06,1.68 -9.09,2.07 -3.03,0.39 -5.93,0.57 -8.68,0.57 -5.64,0 -10.93,-0.93 -15.87,-2.77 -4.95,-1.84 -9.27,-4.56 -12.98,-8.18 -3.7,-3.65 -6.62,-8.16 -8.78,-13.54 -2.15,-5.39 -3.24,-11.66 -3.24,-18.83 0,-5.39 0.93,-10.49 2.77,-15.3 1.85,-4.82 4.49,-9.04 7.93,-12.69 3.45,-3.63 7.62,-6.5 12.51,-8.62 4.9,-2.13 10.41,-3.19 16.57,-3.19zm0.47 16.62c-4.61,0 -8.21,1.3 -10.8,3.91 -2.59,2.62 -4.3,6.4 -5.12,11.32l30.06 0c0,-1.92 -0.23,-3.78 -0.73,-5.59 -0.49,-1.82 -1.29,-3.45 -2.4,-4.87 -1.12,-1.42 -2.59,-2.56 -4.41,-3.44 -1.81,-0.89 -4.01,-1.33 -6.6,-1.33z"/>
  <path id="2" class="fil1" d="M9512.56 5373.3c-0.62,0.99 -1.26,1.66 -1.96,2.07 -0.7,0.42 -1.61,0.63 -2.7,0.63 -1.14,0 -2.28,-0.26 -3.41,-0.75 -1.14,-0.5 -2.36,-1.01 -3.68,-1.58 -1.32,-0.57 -2.82,-1.12 -4.48,-1.61 -1.66,-0.49 -3.55,-0.72 -5.67,-0.72 -3.06,0 -5.39,0.59 -7.02,1.76 -1.63,1.16 -2.46,2.77 -2.46,4.84 0,1.5 0.54,2.74 1.61,3.73 1.06,1.01 2.46,1.86 4.22,2.61 1.76,0.75 3.75,1.48 5.98,2.15 2.22,0.68 4.5,1.43 6.83,2.25 2.33,0.83 4.61,1.79 6.84,2.91 2.23,1.11 4.22,2.51 5.98,4.14 1.76,1.63 3.19,3.6 4.25,5.93 1.06,2.33 1.58,5.15 1.58,8.41 0,3.99 -0.73,7.67 -2.18,11.04 -1.45,3.36 -3.6,6.29 -6.47,8.72 -2.87,2.44 -6.42,4.33 -10.64,5.67 -4.22,1.35 -9.09,2.02 -14.58,2.02 -2.75,0 -5.49,-0.26 -8.24,-0.77 -2.74,-0.52 -5.38,-1.22 -7.95,-2.1 -2.56,-0.88 -4.94,-1.94 -7.12,-3.16 -2.17,-1.22 -4.04,-2.51 -5.59,-3.91l5.59 -8.91c0.68,-1.06 1.48,-1.86 2.41,-2.46 0.93,-0.62 2.15,-0.9 3.65,-0.9 1.4,0 2.67,0.31 3.78,0.93 1.12,0.62 2.31,1.29 3.6,2.02 1.3,0.72 2.82,1.4 4.56,2.02 1.73,0.62 3.91,0.93 6.55,0.93 1.87,0 3.44,-0.21 4.74,-0.6 1.29,-0.38 2.33,-0.9 3.11,-1.58 0.77,-0.67 1.34,-1.42 1.71,-2.25 0.36,-0.83 0.54,-1.68 0.54,-2.56 0,-1.61 -0.54,-2.93 -1.63,-3.96 -1.09,-1.04 -2.51,-1.95 -4.27,-2.7 -1.77,-0.75 -3.76,-1.45 -6.01,-2.1 -2.25,-0.64 -4.56,-1.37 -6.89,-2.2 -2.33,-0.82 -4.61,-1.83 -6.86,-3 -2.25,-1.17 -4.27,-2.64 -6.04,-4.43 -1.76,-1.78 -3.18,-3.96 -4.27,-6.55 -1.09,-2.59 -1.63,-5.72 -1.63,-9.4 0,-3.42 0.67,-6.68 1.99,-9.76 1.32,-3.08 3.29,-5.78 5.93,-8.11 2.65,-2.33 5.96,-4.19 9.95,-5.56 3.99,-1.38 8.65,-2.05 13.98,-2.05 2.9,0 5.72,0.26 8.44,0.78 2.72,0.51 5.26,1.27 7.64,2.2 2.38,0.93 4.56,2.04 6.53,3.34 1.97,1.27 3.7,2.67 5.2,4.19l-5.44 8.39z"/>
  <path id="3" class="fil1" d="M9566.16 5354.4c5.34,0 10.23,0.83 14.66,2.49 4.43,1.65 8.24,4.06 11.42,7.22 3.19,3.16 5.67,7.02 7.46,11.6 1.79,4.59 2.67,9.79 2.67,15.59 0,1.81 -0.08,3.29 -0.24,4.43 -0.15,1.14 -0.44,2.04 -0.85,2.72 -0.42,0.67 -0.96,1.14 -1.66,1.4 -0.7,0.25 -1.6,0.38 -2.69,0.38l-46.46 0c0.78,6.76 2.82,11.66 6.14,14.71 3.31,3.03 7.59,4.56 12.82,4.56 2.79,0 5.2,-0.34 7.22,-1.01 2.02,-0.67 3.83,-1.42 5.41,-2.28 1.58,-0.83 3.03,-1.58 4.35,-2.25 1.32,-0.67 2.7,-1.01 4.15,-1.01 1.91,0 3.36,0.72 4.35,2.15l6.99 8.8c-2.49,2.8 -5.15,5.1 -8.03,6.84 -2.87,1.76 -5.82,3.16 -8.85,4.14 -3.03,0.99 -6.06,1.68 -9.09,2.07 -3.03,0.39 -5.93,0.57 -8.68,0.57 -5.64,0 -10.93,-0.93 -15.87,-2.77 -4.95,-1.84 -9.27,-4.56 -12.98,-8.18 -3.7,-3.65 -6.62,-8.16 -8.77,-13.54 -2.15,-5.39 -3.24,-11.66 -3.24,-18.83 0,-5.39 0.93,-10.49 2.77,-15.3 1.84,-4.82 4.48,-9.04 7.92,-12.69 3.45,-3.63 7.62,-6.5 12.51,-8.62 4.9,-2.13 10.41,-3.19 16.57,-3.19zm0.47 16.62c-4.61,0 -8.21,1.3 -10.8,3.91 -2.59,2.62 -4.3,6.4 -5.12,11.32l30.06 0c0,-1.92 -0.23,-3.78 -0.73,-5.59 -0.49,-1.82 -1.29,-3.45 -2.4,-4.87 -1.12,-1.42 -2.59,-2.56 -4.41,-3.44 -1.81,-0.89 -4.01,-1.33 -6.6,-1.33z"/>
  <path id="4" class="fil1" d="M9616.19 5436.28l0 -80.64 14.3 0c1.19,0 2.2,0.11 3,0.31 0.8,0.21 1.48,0.55 2.02,0.99 0.54,0.44 0.96,1.01 1.24,1.76 0.29,0.72 0.52,1.6 0.73,2.64l1.32 7.59c2.95,-4.59 6.27,-8.21 9.94,-10.85 3.68,-2.67 7.69,-3.99 12.04,-3.99 3.68,0 6.63,0.91 8.86,2.69l-3.11 17.74c-0.21,1.09 -0.62,1.84 -1.24,2.28 -0.62,0.44 -1.45,0.67 -2.49,0.67 -0.88,0 -1.91,-0.13 -3.1,-0.36 -1.2,-0.23 -2.7,-0.34 -4.51,-0.34 -6.32,0 -11.29,3.6 -14.92,10.83l0 48.68 -24.08 0z"/>
  <path id="5" class="fil1" d="M9708.64 5437.52c-3.83,0 -7.2,-0.57 -10.13,-1.68 -2.92,-1.11 -5.38,-2.69 -7.38,-4.74 -1.99,-2.04 -3.52,-4.53 -4.55,-7.43 -1.04,-2.9 -1.56,-6.14 -1.56,-9.71l0 -41.69 -6.83 0c-1.25,0 -2.31,-0.39 -3.19,-1.19 -0.88,-0.78 -1.32,-1.95 -1.32,-3.47l0 -9.27 12.82 -2.52 4.74 -19.81c0.62,-2.51 2.38,-3.75 5.28,-3.75l12.59 0 0 23.54 19.57 0 0 16.47 -19.57 0 0 40.01c0,1.86 0.46,3.39 1.37,4.6 0.9,1.22 2.2,1.84 3.91,1.84 0.88,0 1.63,-0.1 2.23,-0.28 0.59,-0.18 1.11,-0.39 1.55,-0.62 0.44,-0.24 0.85,-0.44 1.24,-0.62 0.39,-0.19 0.83,-0.26 1.35,-0.26 0.72,0 1.32,0.15 1.76,0.49 0.44,0.36 0.88,0.88 1.35,1.6l7.3 11.5c-3.11,2.33 -6.61,4.07 -10.49,5.23 -3.88,1.17 -7.9,1.76 -12.04,1.76z"/>
  <path id="6" class="fil1" d="M9798.13 5436.28c-2.27,0 -3.98,-0.31 -5.15,-0.93 -1.16,-0.62 -2.15,-1.92 -2.92,-3.89l-1.71 -4.42c-2.02,1.7 -3.97,3.21 -5.83,4.5 -1.86,1.3 -3.78,2.38 -5.77,3.29 -2,0.91 -4.12,1.58 -6.37,2.02 -2.26,0.44 -4.77,0.67 -7.51,0.67 -3.68,0 -7.02,-0.49 -10.03,-1.45 -3,-0.96 -5.54,-2.35 -7.63,-4.24 -2.1,-1.87 -3.73,-4.2 -4.87,-6.97 -1.14,-2.77 -1.71,-5.98 -1.71,-9.63 0,-2.85 0.72,-5.78 2.17,-8.81 1.45,-3 3.97,-5.75 7.54,-8.21 3.57,-2.48 8.39,-4.53 14.45,-6.21 6.06,-1.66 13.7,-2.49 22.92,-2.49l0 -3.44c0,-4.77 -0.96,-8.21 -2.91,-10.31 -1.94,-2.12 -4.71,-3.18 -8.28,-3.18 -2.85,0 -5.18,0.31 -6.99,0.93 -1.82,0.62 -3.42,1.32 -4.85,2.1 -1.42,0.77 -2.82,1.47 -4.16,2.1 -1.35,0.62 -2.96,0.93 -4.82,0.93 -1.66,0 -3.06,-0.42 -4.22,-1.22 -1.17,-0.8 -2.1,-1.79 -2.77,-2.98l-4.35 -7.53c4.87,-4.33 10.28,-7.54 16.21,-9.66 5.93,-2.1 12.27,-3.16 19.06,-3.16 4.86,0 9.27,0.8 13.18,2.38 3.91,1.58 7.22,3.78 9.94,6.6 2.72,2.83 4.79,6.19 6.24,10.08 1.45,3.88 2.18,8.13 2.18,12.74l0 50.39 -11.04 0zm-27.65 -14.76c3.11,0 5.83,-0.54 8.16,-1.61 2.33,-1.06 4.68,-2.79 7.07,-5.2l0 -11.06c-4.82,0 -8.78,0.31 -11.89,0.93 -3.11,0.63 -5.57,1.4 -7.38,2.36 -1.81,0.93 -3.06,1.99 -3.76,3.19 -0.69,1.19 -1.06,2.51 -1.06,3.91 0,2.74 0.75,4.68 2.26,5.8 1.5,1.11 3.7,1.68 6.6,1.68z"/>
  <path id="7" class="fil1" d="M9958.94 5379.6c0,8.2 -1.4,15.74 -4.22,22.68 -2.82,6.91 -6.81,12.9 -11.94,17.95 -5.12,5.04 -11.29,8.98 -18.51,11.8 -7.23,2.83 -15.25,4.25 -24.06,4.25l-43.97 0 0 -113.26 43.97 0c8.81,0 16.83,1.42 24.06,4.27 7.22,2.85 13.39,6.78 18.51,11.81 5.13,5.05 9.12,11 11.94,17.92 2.82,6.94 4.22,14.44 4.22,22.58zm-26.88 0c0,-5.6 -0.72,-10.65 -2.17,-15.15 -1.45,-4.51 -3.52,-8.34 -6.24,-11.47 -2.72,-3.14 -6.06,-5.55 -10,-7.23 -3.93,-1.68 -8.41,-2.54 -13.44,-2.54l-17.55 0 0 72.87 17.55 0c5.03,0 9.51,-0.85 13.44,-2.54 3.94,-1.68 7.28,-4.09 10,-7.22 2.72,-3.13 4.79,-6.97 6.24,-11.47 1.45,-4.51 2.17,-9.58 2.17,-15.25z"/>
  <path id="8" class="fil1" d="M9996.38 5355.64l0 80.64 -24.08 0 0 -80.64 24.08 0zm2.8 -22.06c0,1.92 -0.39,3.7 -1.17,5.39 -0.77,1.68 -1.84,3.16 -3.18,4.42 -1.35,1.27 -2.9,2.28 -4.69,3.03 -1.79,0.76 -3.7,1.14 -5.72,1.14 -1.97,0 -3.81,-0.38 -5.52,-1.14 -1.71,-0.75 -3.21,-1.76 -4.53,-3.03 -1.32,-1.26 -2.36,-2.74 -3.11,-4.42 -0.75,-1.69 -1.14,-3.47 -1.14,-5.39 0,-1.97 0.39,-3.81 1.14,-5.52 0.75,-1.7 1.79,-3.21 3.11,-4.5 1.32,-1.3 2.82,-2.31 4.53,-3.03 1.71,-0.73 3.55,-1.09 5.52,-1.09 2.02,0 3.93,0.36 5.72,1.09 1.79,0.72 3.34,1.73 4.69,3.03 1.34,1.29 2.41,2.8 3.18,4.5 0.78,1.71 1.17,3.55 1.17,5.52z"/>
  <path id="9" class="fil1" d="M10072.36 5436.28c-1.51,0 -2.75,-0.34 -3.76,-1.01 -1.01,-0.67 -1.73,-1.68 -2.15,-3.03l-1.86 -6.14c-1.61,1.71 -3.29,3.27 -5.05,4.66 -1.76,1.4 -3.65,2.59 -5.7,3.6 -2.04,1.01 -4.24,1.79 -6.6,2.33 -2.36,0.55 -4.92,0.83 -7.67,0.83 -4.19,0 -8.08,-0.93 -11.65,-2.79 -3.57,-1.87 -6.65,-4.56 -9.24,-8.08 -2.59,-3.55 -4.61,-7.85 -6.09,-12.95 -1.47,-5.13 -2.23,-10.93 -2.23,-17.48 0,-6.01 0.83,-11.57 2.49,-16.75 1.66,-5.16 4.01,-9.61 7.04,-13.37 3.03,-3.75 6.66,-6.7 10.91,-8.83 4.24,-2.12 8.93,-3.18 14.06,-3.18 4.14,0 7.66,0.62 10.54,1.86 2.87,1.25 5.46,2.88 7.79,4.9l0 -40.94 24.08 0 0 116.37 -14.91 0zm-24.4 -17.27c1.76,0 3.37,-0.16 4.79,-0.49 1.43,-0.34 2.72,-0.83 3.91,-1.45 1.2,-0.63 2.34,-1.4 3.4,-2.33 1.06,-0.94 2.09,-2.02 3.13,-3.27l0 -34.2c-1.86,-2.02 -3.83,-3.45 -5.93,-4.25 -2.1,-0.8 -4.32,-1.22 -6.65,-1.22 -2.23,0 -4.28,0.44 -6.14,1.32 -1.87,0.88 -3.47,2.31 -4.84,4.25 -1.38,1.94 -2.46,4.45 -3.24,7.59 -0.78,3.1 -1.17,6.86 -1.17,11.26 0,4.25 0.31,7.85 0.94,10.75 0.62,2.9 1.5,5.25 2.61,7.04 1.11,1.79 2.44,3.06 3.99,3.83 1.55,0.78 3.29,1.17 5.2,1.17z"/>
  <path id="10" class="fil1" d="M10130.77 5355.64l0 80.64 -24.08 0 0 -80.64 24.08 0zm2.8 -22.06c0,1.92 -0.39,3.7 -1.17,5.39 -0.77,1.68 -1.84,3.16 -3.18,4.42 -1.35,1.27 -2.9,2.28 -4.69,3.03 -1.79,0.76 -3.7,1.14 -5.72,1.14 -1.97,0 -3.81,-0.38 -5.52,-1.14 -1.71,-0.75 -3.21,-1.76 -4.53,-3.03 -1.32,-1.26 -2.36,-2.74 -3.11,-4.42 -0.75,-1.69 -1.14,-3.47 -1.14,-5.39 0,-1.97 0.39,-3.81 1.14,-5.52 0.75,-1.7 1.79,-3.21 3.11,-4.5 1.32,-1.3 2.82,-2.31 4.53,-3.03 1.71,-0.73 3.55,-1.09 5.52,-1.09 2.02,0 3.93,0.36 5.72,1.09 1.79,0.72 3.34,1.73 4.69,3.03 1.34,1.29 2.41,2.8 3.18,4.5 0.78,1.71 1.17,3.55 1.17,5.52z"/>
  <path id="11" class="fil1" d="M10174.27 5319.91l0 65.25 3.58 0c1.5,0 2.67,-0.2 3.47,-0.62 0.8,-0.41 1.55,-1.16 2.28,-2.25l15.22 -22.76c0.88,-1.35 1.95,-2.33 3.16,-2.95 1.22,-0.63 2.75,-0.94 4.61,-0.94l22.06 0 -20.82 28.8c-0.98,1.34 -2.04,2.54 -3.21,3.57 -1.16,1.04 -2.43,1.97 -3.78,2.82 2.33,1.74 4.35,4.07 6.06,6.97l22.69 38.48 -21.76 0c-1.81,0 -3.36,-0.28 -4.68,-0.88 -1.32,-0.6 -2.41,-1.66 -3.24,-3.16l-15.23 -28.43c-0.72,-1.3 -1.47,-2.15 -2.25,-2.54 -0.78,-0.39 -1.94,-0.57 -3.49,-0.57l-4.67 0 0 35.58 -24.08 0 0 -116.37 24.08 0z"/>
  <path id="12" class="fil1" d="M10269.67 5436.28l0 -113.26 41.64 0c7.82,0 14.48,0.72 19.97,2.17 5.49,1.48 9.97,3.52 13.44,6.16 3.47,2.67 6,5.88 7.58,9.69 1.58,3.8 2.36,8.03 2.36,12.71 0,2.54 -0.36,5 -1.09,7.38 -0.72,2.36 -1.86,4.59 -3.42,6.66 -1.55,2.1 -3.54,3.99 -5.98,5.67 -2.43,1.68 -5.36,3.16 -8.78,4.4 7.46,1.81 12.98,4.74 16.55,8.81 3.57,4.03 5.36,9.24 5.36,15.58 0,4.82 -0.93,9.3 -2.8,13.42 -1.86,4.14 -4.58,7.74 -8.18,10.82 -3.6,3.06 -8.05,5.47 -13.33,7.2 -5.29,1.74 -11.32,2.59 -18.11,2.59l-45.21 0zm26.26 -48.01l0 28.12 18.49 0c3.47,0 6.32,-0.44 8.52,-1.32 2.2,-0.88 3.91,-2.02 5.15,-3.39 1.24,-1.4 2.1,-2.98 2.56,-4.74 0.47,-1.76 0.7,-3.55 0.7,-5.33 0,-2.08 -0.25,-3.94 -0.8,-5.6 -0.54,-1.65 -1.47,-3.05 -2.8,-4.17 -1.32,-1.14 -3.08,-2.02 -5.25,-2.64 -2.18,-0.62 -4.92,-0.93 -8.24,-0.93l-18.33 0zm0 -17.56l13.67 0c2.9,0 5.52,-0.2 7.85,-0.62 2.33,-0.41 4.32,-1.14 5.95,-2.17 1.64,-1.04 2.88,-2.46 3.73,-4.28 0.86,-1.81 1.27,-4.09 1.27,-6.83 0,-2.69 -0.33,-4.95 -1.01,-6.73 -0.67,-1.79 -1.71,-3.22 -3.11,-4.3 -1.39,-1.09 -3.15,-1.87 -5.3,-2.33 -2.15,-0.47 -4.72,-0.7 -7.67,-0.7l-15.38 0 0 27.96z"/>
  <path id="13" class="fil1" d="M10427.21 5436.28c-2.27,0 -3.98,-0.31 -5.15,-0.93 -1.16,-0.62 -2.15,-1.92 -2.92,-3.89l-1.71 -4.42c-2.02,1.7 -3.97,3.21 -5.83,4.5 -1.86,1.3 -3.78,2.38 -5.77,3.29 -2,0.91 -4.12,1.58 -6.37,2.02 -2.26,0.44 -4.77,0.67 -7.51,0.67 -3.68,0 -7.02,-0.49 -10.03,-1.45 -3,-0.96 -5.54,-2.35 -7.63,-4.24 -2.1,-1.87 -3.73,-4.2 -4.87,-6.97 -1.14,-2.77 -1.71,-5.98 -1.71,-9.63 0,-2.85 0.72,-5.78 2.17,-8.81 1.45,-3 3.97,-5.75 7.54,-8.21 3.57,-2.48 8.39,-4.53 14.45,-6.21 6.06,-1.66 13.7,-2.49 22.92,-2.49l0 -3.44c0,-4.77 -0.96,-8.21 -2.91,-10.31 -1.94,-2.12 -4.71,-3.18 -8.28,-3.18 -2.85,0 -5.18,0.31 -6.99,0.93 -1.82,0.62 -3.42,1.32 -4.85,2.1 -1.42,0.77 -2.82,1.47 -4.16,2.1 -1.35,0.62 -2.96,0.93 -4.82,0.93 -1.66,0 -3.06,-0.42 -4.22,-1.22 -1.17,-0.8 -2.1,-1.79 -2.77,-2.98l-4.35 -7.53c4.87,-4.33 10.28,-7.54 16.21,-9.66 5.93,-2.1 12.27,-3.16 19.06,-3.16 4.86,0 9.27,0.8 13.18,2.38 3.91,1.58 7.22,3.78 9.94,6.6 2.72,2.83 4.79,6.19 6.24,10.08 1.45,3.88 2.18,8.13 2.18,12.74l0 50.39 -11.04 0zm-27.65 -14.76c3.11,0 5.83,-0.54 8.16,-1.61 2.33,-1.06 4.68,-2.79 7.07,-5.2l0 -11.06c-4.82,0 -8.78,0.31 -11.89,0.93 -3.11,0.63 -5.57,1.4 -7.38,2.36 -1.81,0.93 -3.06,1.99 -3.76,3.19 -0.69,1.19 -1.06,2.51 -1.06,3.91 0,2.74 0.75,4.68 2.26,5.8 1.5,1.11 3.7,1.68 6.6,1.68z"/>
  <path id="14" class="fil1" d="M10455.33 5436.28l0 -80.64 14.3 0c1.19,0 2.2,0.11 3,0.31 0.8,0.21 1.48,0.55 2.02,0.99 0.54,0.44 0.96,1.01 1.24,1.76 0.29,0.72 0.52,1.6 0.73,2.64l1.32 7.59c2.95,-4.59 6.27,-8.21 9.94,-10.85 3.68,-2.67 7.7,-3.99 12.05,-3.99 3.68,0 6.63,0.91 8.86,2.69l-3.11 17.74c-0.21,1.09 -0.62,1.84 -1.24,2.28 -0.62,0.44 -1.45,0.67 -2.49,0.67 -0.88,0 -1.91,-0.13 -3.1,-0.36 -1.2,-0.23 -2.7,-0.34 -4.52,-0.34 -6.32,0 -11.29,3.6 -14.92,10.83l0 48.68 -24.08 0z"/>
  <path id="15" class="fil1" d="M10542.04 5355.64l0 51.17c0,4.02 0.91,7.1 2.72,9.27 1.81,2.18 4.48,3.26 8,3.26 2.64,0 5.13,-0.54 7.43,-1.63 2.31,-1.08 4.53,-2.61 6.71,-4.58l0 -57.49 24.08 0 0 80.64 -14.91 0c-3.01,0 -4.97,-1.32 -5.91,-3.99l-1.47 -4.58c-1.56,1.47 -3.16,2.82 -4.82,4.01 -1.66,1.22 -3.42,2.23 -5.31,3.08 -1.89,0.83 -3.93,1.51 -6.11,2 -2.17,0.49 -4.56,0.72 -7.15,0.72 -4.4,0 -8.28,-0.77 -11.68,-2.3 -3.39,-1.53 -6.26,-3.65 -8.59,-6.4 -2.33,-2.74 -4.09,-6.01 -5.28,-9.73 -1.2,-3.73 -1.79,-7.82 -1.79,-12.28l0 -51.17 24.08 0z"/>
  <path class="fil2" d="M9277.08 5172.98l0 72.15 -25.98 0 0 -193.03 56.94 0c12.21,0 22.84,1.44 31.86,4.26 9.02,2.83 16.47,6.82 22.39,12.03 5.93,5.2 10.37,11.53 13.28,18.89 2.92,7.36 4.36,15.57 4.36,24.63 0,9.02 -1.57,17.23 -4.72,24.68 -3.14,7.45 -7.71,13.86 -13.77,19.29 -6.06,5.39 -13.6,9.56 -22.57,12.57 -8.97,3 -19.25,4.53 -30.83,4.53l-30.96 0zm0 -20.73l30.96 0c7.45,0 14.05,-0.99 19.75,-2.96 5.7,-1.98 10.45,-4.76 14.31,-8.3 3.86,-3.55 6.78,-7.77 8.75,-12.7 1.97,-4.94 2.96,-10.37 2.96,-16.29 0,-12.29 -3.77,-21.9 -11.35,-28.81 -7.58,-6.91 -19.07,-10.36 -34.42,-10.36l-30.96 0 0 79.42z"/>
  <path id="1" class="fil2" d="M9459.08 5106.48c8.17,0 15.71,1.39 22.62,4.13 6.91,2.74 12.87,6.69 17.9,11.85 5.02,5.16 8.97,11.57 11.8,19.15 2.83,7.59 4.22,16.25 4.22,25.98 0,3.77 -0.41,6.29 -1.21,7.54 -0.81,1.26 -2.34,1.89 -4.58,1.89l-90.73 0c0.18,8.61 1.35,16.15 3.5,22.52 2.16,6.42 5.12,11.71 8.89,16.02 3.77,4.26 8.25,7.45 13.46,9.56 5.2,2.11 11.04,3.18 17.5,3.18 6.01,0 11.21,-0.71 15.57,-2.11 4.35,-1.39 8.07,-2.91 11.21,-4.53 3.15,-1.61 5.79,-3.09 7.9,-4.48 2.11,-1.44 3.91,-2.11 5.43,-2.11 1.97,0 3.5,0.76 4.58,2.29l6.73 8.79c-2.96,3.54 -6.51,6.64 -10.64,9.29 -4.12,2.65 -8.52,4.8 -13.23,6.5 -4.71,1.66 -9.61,2.97 -14.63,3.82 -5.03,0.85 -10.01,1.25 -14.94,1.25 -9.42,0 -18.08,-1.61 -26.03,-4.8 -7.94,-3.18 -14.8,-7.85 -20.59,-14 -5.79,-6.14 -10.32,-13.77 -13.55,-22.83 -3.23,-9.07 -4.85,-19.48 -4.85,-31.28 0,-9.51 1.48,-18.4 4.4,-26.65 2.91,-8.26 7.09,-15.44 12.56,-21.49 5.48,-6.06 12.16,-10.82 20.06,-14.27 7.9,-3.46 16.78,-5.21 26.65,-5.21zm0.54 17.77c-11.58,0 -20.68,3.32 -27.33,10.01 -6.64,6.64 -10.76,15.88 -12.38,27.68l74.17 0c0,-5.56 -0.76,-10.63 -2.29,-15.21 -1.52,-4.62 -3.77,-8.61 -6.73,-11.94 -2.96,-3.36 -6.55,-5.96 -10.81,-7.8 -4.26,-1.84 -9.16,-2.74 -14.63,-2.74z"/>
  <path id="2" class="fil2" d="M9546.17 5245.13l0 -136.49 14.27 0c3.41,0 5.57,1.66 6.46,4.98l1.89 14.85c5.92,-6.6 12.56,-11.89 19.87,-15.93 7.32,-4.04 15.75,-6.06 25.36,-6.06 7.44,0 14.04,1.26 19.74,3.73 5.7,2.46 10.45,5.96 14.27,10.5 3.81,4.53 6.68,10 8.66,16.37 1.97,6.37 2.96,13.42 2.96,21.14l0 86.91 -23.96 0 0 -86.91c0,-10.32 -2.33,-18.36 -7.05,-24.05 -4.71,-5.7 -11.93,-8.57 -21.62,-8.57 -7.09,0 -13.69,1.7 -19.84,5.11 -6.14,3.41 -11.84,8.08 -17.05,13.91l0 100.51 -23.96 0z"/>
  <path id="3" class="fil2" d="M9749.84 5106.48c8.17,0 15.71,1.39 22.62,4.13 6.91,2.74 12.87,6.69 17.9,11.85 5.02,5.16 8.97,11.57 11.8,19.15 2.83,7.59 4.22,16.25 4.22,25.98 0,3.77 -0.41,6.29 -1.21,7.54 -0.81,1.26 -2.34,1.89 -4.58,1.89l-90.73 0c0.18,8.61 1.35,16.15 3.5,22.52 2.16,6.42 5.12,11.71 8.89,16.02 3.77,4.26 8.25,7.45 13.46,9.56 5.2,2.11 11.04,3.18 17.5,3.18 6.01,0 11.21,-0.71 15.57,-2.11 4.35,-1.39 8.07,-2.91 11.21,-4.53 3.15,-1.61 5.79,-3.09 7.9,-4.48 2.11,-1.44 3.91,-2.11 5.43,-2.11 1.97,0 3.5,0.76 4.58,2.29l6.73 8.79c-2.96,3.54 -6.51,6.64 -10.64,9.29 -4.12,2.65 -8.52,4.8 -13.23,6.5 -4.71,1.66 -9.61,2.97 -14.63,3.82 -5.03,0.85 -10.01,1.25 -14.94,1.25 -9.42,0 -18.08,-1.61 -26.03,-4.8 -7.94,-3.18 -14.8,-7.85 -20.59,-14 -5.79,-6.14 -10.32,-13.77 -13.55,-22.83 -3.23,-9.07 -4.85,-19.48 -4.85,-31.28 0,-9.51 1.48,-18.4 4.4,-26.65 2.91,-8.26 7.09,-15.44 12.56,-21.49 5.48,-6.06 12.16,-10.82 20.06,-14.27 7.9,-3.46 16.78,-5.21 26.65,-5.21zm0.54 17.77c-11.58,0 -20.68,3.32 -27.33,10.01 -6.64,6.64 -10.76,15.88 -12.38,27.68l74.17 0c0,-5.56 -0.76,-10.63 -2.29,-15.21 -1.52,-4.62 -3.77,-8.61 -6.73,-11.94 -2.96,-3.36 -6.55,-5.96 -10.81,-7.8 -4.26,-1.84 -9.16,-2.74 -14.63,-2.74z"/>
  <path id="4" class="fil2" d="M9836.93 5245.13l0 -136.49 13.73 0c2.61,0 4.4,0.53 5.39,1.57 0.98,1.03 1.66,2.87 2.02,5.43l1.61 22.61c4.67,-10.1 10.46,-17.95 17.32,-23.56 6.87,-5.65 14.9,-8.48 24.14,-8.48 3.77,0 7.18,0.45 10.23,1.3 3.05,0.9 5.88,2.11 8.48,3.68l-3.09 17.91c-0.63,2.24 -2.02,3.36 -4.18,3.36 -1.25,0 -3.18,-0.45 -5.78,-1.3 -2.61,-0.85 -6.24,-1.26 -10.91,-1.26 -8.34,0 -15.3,2.52 -20.91,7.59 -5.61,5.07 -10.32,12.43 -14.09,22.07l0 85.57 -23.96 0z"/>
  <path id="5" class="fil2" d="M9972.09 5108.64l0 136.49 -23.96 0 0 -136.49 23.96 0zm5.38 -42.81c0,2.33 -0.45,4.49 -1.39,6.51 -0.94,2.01 -2.2,3.81 -3.77,5.38 -1.57,1.57 -3.41,2.83 -5.47,3.72 -2.07,0.9 -4.27,1.35 -6.6,1.35 -2.33,0 -4.49,-0.45 -6.51,-1.35 -2.02,-0.89 -3.81,-2.15 -5.38,-3.72 -1.57,-1.57 -2.83,-3.37 -3.72,-5.38 -0.9,-2.02 -1.35,-4.18 -1.35,-6.51 0,-2.33 0.45,-4.58 1.35,-6.69 0.89,-2.11 2.15,-3.94 3.72,-5.52 1.57,-1.57 3.36,-2.78 5.38,-3.67 2.02,-0.9 4.18,-1.35 6.51,-1.35 2.33,0 4.53,0.45 6.6,1.35 2.06,0.89 3.9,2.1 5.47,3.67 1.57,1.58 2.83,3.41 3.77,5.52 0.94,2.11 1.39,4.36 1.39,6.69z"/>
  <path id="6" class="fil2" d="M10014.35 5245.13l0 -136.49 14.27 0c3.41,0 5.57,1.66 6.46,4.98l1.75 14.04c5.03,-6.24 10.68,-11.31 16.92,-15.26 6.24,-3.94 13.46,-5.92 21.72,-5.92 9.24,0 16.73,2.56 22.43,7.67 5.7,5.12 9.78,12.03 12.3,20.78 1.88,-4.94 4.39,-9.24 7.49,-12.83 3.09,-3.59 6.55,-6.55 10.41,-8.89 3.86,-2.33 7.99,-4.04 12.34,-5.11 4.35,-1.08 8.75,-1.62 13.23,-1.62 7.18,0 13.6,1.17 19.21,3.46 5.61,2.29 10.36,5.61 14.27,10 3.9,4.4 6.86,9.83 8.93,16.25 2.06,6.41 3.09,13.77 3.09,22.03l0 86.91 -23.96 0 0 -86.91c0,-10.68 -2.33,-18.8 -7,-24.32 -4.66,-5.52 -11.44,-8.3 -20.32,-8.3 -3.95,0 -7.68,0.71 -11.22,2.11 -3.55,1.39 -6.69,3.41 -9.38,6.1 -2.69,2.69 -4.8,6.1 -6.37,10.18 -1.57,4.09 -2.38,8.84 -2.38,14.23l0 86.91 -23.96 0 0 -86.91c0,-10.95 -2.2,-19.16 -6.6,-24.55 -4.39,-5.38 -10.81,-8.07 -19.24,-8.07 -5.93,0 -11.4,1.61 -16.47,4.8 -5.07,3.18 -9.74,7.54 -13.96,13.01l0 101.72 -23.96 0z"/>
  <path id="7" class="fil2" d="M10335.54 5245.13l-10.63 0c-2.33,0 -4.22,-0.36 -5.65,-1.08 -1.44,-0.71 -2.38,-2.29 -2.83,-4.62l-2.69 -12.7c-3.59,3.23 -7.09,6.15 -10.5,8.71 -3.41,2.6 -7,4.75 -10.77,6.5 -3.77,1.75 -7.76,3.1 -12.03,4 -4.26,0.9 -9.02,1.34 -14.22,1.34 -5.3,0 -10.23,-0.76 -14.85,-2.24 -4.63,-1.48 -8.67,-3.72 -12.08,-6.69 -3.41,-2.96 -6.11,-6.73 -8.12,-11.3 -2.02,-4.53 -3.06,-9.92 -3.06,-16.16 0,-5.43 1.48,-10.63 4.45,-15.61 2.96,-5.03 7.76,-9.47 14.35,-13.37 6.61,-3.86 15.23,-7.05 25.9,-9.51 10.68,-2.47 23.74,-3.73 39.18,-3.73l0 -10.72c0,-10.64 -2.25,-18.71 -6.78,-24.14 -4.53,-5.48 -11.26,-8.21 -20.15,-8.21 -5.83,0 -10.72,0.71 -14.71,2.19 -4,1.49 -7.45,3.15 -10.37,4.99 -2.91,1.84 -5.43,3.5 -7.54,4.98 -2.11,1.48 -4.21,2.24 -6.29,2.24 -1.61,0 -3,-0.4 -4.22,-1.26 -1.21,-0.85 -2.19,-1.88 -2.91,-3.14l-4.31 -7.54c7.54,-7.31 15.67,-12.78 24.37,-16.42 8.71,-3.63 18.36,-5.43 28.95,-5.43 7.62,0 14.4,1.26 20.32,3.77 5.92,2.51 10.91,6.01 14.94,10.5 4.04,4.49 7.09,9.92 9.16,16.33 2.06,6.38 3.09,13.38 3.09,21l0 87.32zm-62.19 -14.81c4.22,0 8.08,-0.4 11.58,-1.25 3.5,-0.86 6.82,-2.02 9.92,-3.59 3.09,-1.53 6.05,-3.41 8.88,-5.66 2.83,-2.2 5.56,-4.71 8.26,-7.53l0 -28.27c-11.04,0 -20.42,0.71 -28.14,2.11 -7.71,1.39 -14,3.18 -18.84,5.47 -4.85,2.24 -8.35,4.89 -10.55,7.94 -2.2,3.05 -3.32,6.46 -3.32,10.28 0,3.59 0.59,6.68 1.75,9.29 1.17,2.6 2.74,4.75 4.71,6.41 1.98,1.66 4.31,2.87 7,3.64 2.7,0.76 5.61,1.16 8.75,1.16z"/>
  <path id="8" class="fil2" d="M10472.03 5245.13l-10.63 0c-2.33,0 -4.22,-0.36 -5.65,-1.08 -1.44,-0.71 -2.38,-2.29 -2.83,-4.62l-2.69 -12.7c-3.59,3.23 -7.09,6.15 -10.5,8.71 -3.41,2.6 -7,4.75 -10.77,6.5 -3.77,1.75 -7.76,3.1 -12.03,4 -4.26,0.9 -9.02,1.34 -14.22,1.34 -5.3,0 -10.23,-0.76 -14.85,-2.24 -4.62,-1.48 -8.66,-3.72 -12.07,-6.69 -3.41,-2.96 -6.11,-6.73 -8.12,-11.3 -2.02,-4.53 -3.06,-9.92 -3.06,-16.16 0,-5.43 1.48,-10.63 4.45,-15.61 2.96,-5.03 7.76,-9.47 14.35,-13.37 6.6,-3.86 15.22,-7.05 25.89,-9.51 10.68,-2.47 23.74,-3.73 39.18,-3.73l0 -10.72c0,-10.64 -2.25,-18.71 -6.78,-24.14 -4.53,-5.48 -11.26,-8.21 -20.15,-8.21 -5.83,0 -10.72,0.71 -14.71,2.19 -4,1.49 -7.45,3.15 -10.37,4.99 -2.91,1.84 -5.43,3.5 -7.54,4.98 -2.11,1.48 -4.21,2.24 -6.28,2.24 -1.61,0 -3,-0.4 -4.22,-1.26 -1.21,-0.85 -2.19,-1.88 -2.91,-3.14l-4.31 -7.54c7.54,-7.31 15.66,-12.78 24.36,-16.42 8.71,-3.63 18.36,-5.43 28.95,-5.43 7.62,0 14.4,1.26 20.32,3.77 5.92,2.51 10.91,6.01 14.94,10.5 4.04,4.49 7.09,9.92 9.16,16.33 2.06,6.38 3.09,13.38 3.09,21l0 87.32zm-62.19 -14.81c4.22,0 8.08,-0.4 11.58,-1.25 3.5,-0.86 6.82,-2.02 9.92,-3.59 3.09,-1.53 6.05,-3.41 8.88,-5.66 2.83,-2.2 5.56,-4.71 8.26,-7.53l0 -28.27c-11.04,0 -20.42,0.71 -28.14,2.11 -7.71,1.39 -14,3.18 -18.84,5.47 -4.85,2.24 -8.35,4.89 -10.55,7.94 -2.2,3.05 -3.32,6.46 -3.32,10.28 0,3.59 0.59,6.68 1.75,9.29 1.17,2.6 2.74,4.75 4.71,6.41 1.98,1.66 4.31,2.87 7,3.64 2.7,0.76 5.61,1.16 8.75,1.16z"/>
  <path id="9" class="fil2" d="M10508.37 5245.13l0 -136.49 14.27 0c3.41,0 5.57,1.66 6.46,4.98l1.89 14.85c5.92,-6.6 12.56,-11.89 19.87,-15.93 7.32,-4.04 15.75,-6.06 25.36,-6.06 7.44,0 14.04,1.26 19.74,3.73 5.7,2.46 10.45,5.96 14.27,10.5 3.81,4.53 6.68,10 8.66,16.37 1.97,6.37 2.96,13.42 2.96,21.14l0 86.91 -23.96 0 0 -86.91c0,-10.32 -2.33,-18.36 -7.05,-24.05 -4.71,-5.7 -11.93,-8.57 -21.62,-8.57 -7.09,0 -13.69,1.7 -19.84,5.11 -6.14,3.41 -11.84,8.08 -17.05,13.91l0 100.51 -23.96 0z"/>
  <path class="fil2" d="M10765.29 5048.6c9.62,0 18.3,1.43 26,4.23 7.7,2.81 14.24,6.72 19.67,11.71 5.43,5.03 9.62,10.99 12.51,17.89 2.89,6.95 4.32,14.56 4.32,22.88 0,7.12 -0.98,13.76 -2.98,19.81 -2.01,6.1 -4.77,11.89 -8.24,17.36 -3.47,5.52 -7.48,10.82 -12.06,15.98 -4.59,5.12 -9.48,10.33 -14.65,15.63l-38.06 39.12c4.9,-1.56 9.75,-2.85 14.51,-3.78 4.77,-0.94 9.22,-1.38 13.4,-1.38l36.33 0c4.45,0 7.96,1.2 10.55,3.65 2.58,2.45 3.87,5.7 3.87,9.7l0 24.04 -136.75 0 0 -13.35c0,-2.59 0.54,-5.35 1.61,-8.28 1.06,-2.94 2.93,-5.61 5.6,-8.02l56.09 -56.48c4.81,-4.81 8.99,-9.4 12.55,-13.76 3.57,-4.36 6.5,-8.68 8.82,-12.91 2.31,-4.23 4.05,-8.45 5.21,-12.68 1.15,-4.23 1.73,-8.68 1.73,-13.4 0,-7.75 -1.82,-13.71 -5.52,-17.85 -3.69,-4.14 -9.35,-6.19 -16.91,-6.19 -3.12,0 -5.97,0.45 -8.55,1.34 -2.58,0.89 -4.9,2.09 -6.94,3.6 -2.05,1.52 -3.79,3.3 -5.26,5.34 -1.46,2.05 -2.67,4.28 -3.56,6.68 -1.42,4.01 -3.2,6.9 -5.38,8.68 -2.18,1.78 -5.17,2.67 -8.91,2.67 -0.89,0 -1.82,-0.04 -2.84,-0.13 -1.03,-0.09 -2.1,-0.22 -3.16,-0.4l-21.91 -3.83c1.43,-9.7 4.19,-18.21 8.24,-25.46 4.05,-7.21 9.08,-13.27 15.09,-18.07 6.01,-4.81 12.86,-8.42 20.61,-10.78 7.74,-2.36 16.07,-3.56 24.97,-3.56z"/>
  <path id="1" class="fil2" d="M10931.7 5122.05c7.03,0 13.97,1.16 20.83,3.47 6.85,2.32 13,5.88 18.43,10.68 5.43,4.81 9.83,10.91 13.17,18.25 3.34,7.35 4.99,16.03 4.99,26 0,9.13 -1.69,17.72 -5.08,25.91 -3.38,8.14 -8.14,15.27 -14.33,21.36 -6.19,6.1 -13.67,10.95 -22.39,14.52 -8.72,3.56 -18.38,5.34 -28.98,5.34 -10.86,0 -20.62,-1.74 -29.25,-5.17 -8.64,-3.42 -15.94,-8.19 -21.95,-14.33 -6.01,-6.14 -10.59,-13.53 -13.75,-22.08 -3.16,-8.55 -4.77,-17.94 -4.77,-28.18 0,-9.7 1.87,-19.36 5.61,-29.02 3.74,-9.61 9.26,-19.41 16.56,-29.38l43.81 -59.2c1.96,-2.67 4.9,-4.9 8.82,-6.72 3.91,-1.83 8.36,-2.76 13.35,-2.76l36.86 0 -57.69 69.26c-0.89,0.98 -1.74,2 -2.58,3.03 -0.85,1.02 -1.7,2.05 -2.5,3.03 3.12,-1.3 6.41,-2.27 9.84,-2.99 3.43,-0.66 7.08,-1.02 11,-1.02zm-43.28 61.29c0,4.81 0.58,9.13 1.73,12.96 1.16,3.83 2.94,7.12 5.35,9.88 2.4,2.76 5.43,4.85 9.08,6.32 3.66,1.47 7.97,2.23 12.96,2.23 4.27,0 8.28,-0.81 11.97,-2.41 3.7,-1.6 6.86,-3.83 9.53,-6.63 2.67,-2.8 4.81,-6.1 6.37,-9.88 1.55,-3.79 2.31,-7.88 2.31,-12.33 0,-4.99 -0.71,-9.44 -2.18,-13.36 -1.47,-3.91 -3.56,-7.21 -6.23,-9.88 -2.67,-2.67 -5.88,-4.72 -9.66,-6.14 -3.79,-1.43 -8.01,-2.14 -12.64,-2.14 -4.19,0 -8.02,0.71 -11.5,2.18 -3.47,1.47 -6.45,3.61 -8.99,6.37 -2.54,2.76 -4.54,6.05 -5.96,9.88 -1.43,3.83 -2.14,8.15 -2.14,12.95z"/>
  <path id="2" class="fil2" d="M10765.29 5272.95c9.62,0 18.3,1.43 26,4.23 7.7,2.81 14.24,6.72 19.67,11.71 5.43,5.03 9.62,10.99 12.51,17.89 2.89,6.95 4.32,14.56 4.32,22.88 0,7.12 -0.98,13.76 -2.98,19.81 -2.01,6.1 -4.77,11.89 -8.24,17.36 -3.47,5.52 -7.48,10.82 -12.06,15.98 -4.59,5.12 -9.48,10.33 -14.65,15.63l-38.06 39.12c4.9,-1.56 9.75,-2.85 14.51,-3.78 4.77,-0.94 9.22,-1.38 13.4,-1.38l36.33 0c4.45,0 7.96,1.2 10.55,3.65 2.58,2.45 3.87,5.7 3.87,9.7l0 24.04 -136.75 0 0 -13.35c0,-2.59 0.54,-5.35 1.61,-8.28 1.06,-2.94 2.93,-5.61 5.6,-8.02l56.09 -56.48c4.81,-4.81 8.99,-9.4 12.55,-13.76 3.57,-4.36 6.5,-8.68 8.82,-12.91 2.31,-4.23 4.05,-8.45 5.21,-12.68 1.15,-4.23 1.73,-8.68 1.73,-13.4 0,-7.75 -1.82,-13.71 -5.52,-17.85 -3.69,-4.14 -9.35,-6.19 -16.91,-6.19 -3.12,0 -5.97,0.45 -8.55,1.34 -2.58,0.89 -4.9,2.09 -6.94,3.6 -2.05,1.52 -3.79,3.3 -5.26,5.34 -1.46,2.05 -2.67,4.28 -3.56,6.68 -1.42,4.01 -3.2,6.9 -5.38,8.68 -2.18,1.78 -5.17,2.67 -8.91,2.67 -0.89,0 -1.82,-0.04 -2.84,-0.13 -1.03,-0.09 -2.1,-0.22 -3.16,-0.4l-21.91 -3.83c1.43,-9.7 4.19,-18.21 8.24,-25.46 4.05,-7.21 9.08,-13.27 15.09,-18.07 6.01,-4.81 12.86,-8.42 20.61,-10.78 7.74,-2.36 16.07,-3.56 24.97,-3.56z"/>
  <path id="3" class="fil2" d="M10987.52 5275.09l0 17.36c0,4.9 -0.54,8.86 -1.61,11.88 -1.07,3.08 -2.09,5.66 -3.07,7.79l-67.97 144.05c-1.78,3.83 -4.41,7.03 -7.88,9.66 -3.48,2.62 -8.07,3.96 -13.76,3.96l-30.18 0 69.45 -139.42c1.87,-3.82 3.91,-7.25 6.1,-10.28 2.18,-3.03 4.54,-5.92 7.12,-8.68l-85.61 0c-1.25,0 -2.41,-0.27 -3.52,-0.76 -1.11,-0.48 -2.09,-1.15 -2.94,-2 -0.84,-0.84 -1.55,-1.82 -2.09,-2.94 -0.53,-1.11 -0.8,-2.22 -0.8,-3.38l0 -27.24 136.76 0z"/>
 </g>
</svg>